<svg width="114" height="111" viewBox="0 0 114 111" fill="none" xmlns="http://www.w3.org/2000/svg">
<path d="M53.1219 3.34733C54.1394 -0.679399 59.8606 -0.6794 60.8781 3.34733L67.4288 29.2713C68.0396 31.6883 70.6883 32.9638 72.9587 31.9344L97.3112 20.8926C101.094 19.1775 104.661 23.6505 102.147 26.9566L85.9632 48.2415C84.4544 50.226 85.1086 53.0921 87.329 54.2254L111.145 66.3805C114.845 68.2685 113.572 73.8463 109.419 73.9422L82.6878 74.5601C80.1955 74.6177 78.3625 76.9162 78.8609 79.3587L84.207 105.558C85.0373 109.627 79.8827 112.109 77.2189 108.923L60.0689 88.4085C58.4699 86.4959 55.5301 86.4959 53.9311 88.4085L36.7811 108.923C34.1173 112.109 28.9627 109.627 29.793 105.558L35.1391 79.3587C35.6375 76.9162 33.8045 74.6177 31.3122 74.5601L4.58055 73.9422C0.428363 73.8463 -0.844726 68.2685 2.85463 66.3805L26.671 54.2254C28.8914 53.0922 29.5456 50.226 28.0368 48.2415L11.8529 26.9566C9.33905 23.6505 12.9062 19.1775 16.6888 20.8926L41.0413 31.9344C43.3117 32.9638 45.9604 31.6883 46.5712 29.2713L53.1219 3.34733Z" fill="#FFC701"/>
</svg>
